<svg width="159" height="236" viewBox="0 0 159 236" fill="none" xmlns="http://www.w3.org/2000/svg">
<path d="M136.916 1.79524C171.109 10.0413 159.423 39.0988 140.853 58.9531C119.628 81.0917 78.6897 69.6814 58.5144 89.7979C19.3468 128.813 151.099 223.628 49.6676 235.682C-12.1018 243.022 -8.69922 121.523 19.5238 72.313C44.0196 29.6025 92.6789 -8.85869 136.916 1.79524Z" fill="#FF5D24"/>
<mask id="mask0_33_84" style="mask-type:alpha" maskUnits="userSpaceOnUse" x="0" y="0" width="159" height="236">
<path d="M136.916 1.79524C171.109 10.0413 159.423 39.0988 140.853 58.9531C119.628 81.0917 78.6897 69.6814 58.5144 89.7979C19.3468 128.813 151.099 223.628 49.6676 235.682C-12.1018 243.022 -8.69922 121.523 19.5238 72.313C44.0196 29.6025 92.6789 -8.85869 136.916 1.79524Z" fill="#FF5D24"/>
</mask>
<g mask="url(#mask0_33_84)">
<path style="mix-blend-mode:color-dodge" d="M-12.5385 4.22296C84.4221 -93.0889 186.215 -147.876 215.827 -118.05C245.438 -88.2243 190.209 14.8758 92.9742 112.361C-4.26014 209.846 -105.806 264.572 -135.365 234.522C-164.924 204.471 -109.662 101.734 -12.5385 4.22296Z" fill="url(#paint0_radial_33_84)"/>
<path style="mix-blend-mode:color-dodge" d="M45.5288 191.875C79.602 108.031 128.002 48.8565 153.631 59.5047C179.261 70.1528 172.609 147.004 138.45 230.922C104.291 314.84 56.0533 374.027 30.443 363.056C4.83276 352.084 11.4557 275.719 45.5288 191.875Z" fill="url(#paint1_radial_33_84)"/>
</g>
<defs>
<radialGradient id="paint0_radial_33_84" cx="0" cy="0" r="1" gradientUnits="userSpaceOnUse" gradientTransform="translate(45.1632 60.8634) rotate(-134.424) scale(77.3724 254.772)">
<stop offset="0.01" stop-color="#B29C71"/>
<stop offset="0.49" stop-color="#382B11"/>
<stop offset="0.72" stop-color="#1A1408"/>
<stop offset="1"/>
</radialGradient>
<radialGradient id="paint1_radial_33_84" cx="0" cy="0" r="1" gradientUnits="userSpaceOnUse" gradientTransform="translate(81.3448 219.029) rotate(-157.295) scale(49.5778 161.012)">
<stop offset="0.01" stop-color="#B29C71"/>
<stop offset="0.49" stop-color="#382B11"/>
<stop offset="0.72" stop-color="#1A1408"/>
<stop offset="1"/>
</radialGradient>
</defs>
</svg>
